<svg width="1026" height="528" viewBox="0 0 1026 528" fill="none" xmlns="http://www.w3.org/2000/svg">
<rect x="1" width="1024" height="512" fill="#EDECEC"/>
<rect x="513" width="512" height="512" fill="#D9D9D9"/>
<rect x="57" y="284" width="200" height="60" rx="5" fill="black"/>
<path d="M104.687 316.766C104.687 316.467 104.64 316.203 104.546 315.975C104.458 315.74 104.3 315.529 104.071 315.342C103.849 315.154 103.538 314.976 103.14 314.806C102.747 314.636 102.249 314.463 101.646 314.287C101.013 314.1 100.441 313.892 99.9316 313.663C99.4219 313.429 98.9854 313.162 98.6221 312.863C98.2588 312.564 97.9805 312.222 97.7871 311.835C97.5938 311.448 97.4971 311.006 97.4971 310.508C97.4971 310.01 97.5996 309.55 97.8047 309.128C98.0098 308.706 98.3027 308.34 98.6836 308.029C99.0703 307.713 99.5303 307.467 100.063 307.291C100.597 307.115 101.191 307.027 101.848 307.027C102.809 307.027 103.623 307.212 104.291 307.581C104.965 307.944 105.478 308.422 105.829 309.014C106.181 309.6 106.356 310.227 106.356 310.895H104.669C104.669 310.414 104.566 309.989 104.361 309.62C104.156 309.245 103.846 308.952 103.43 308.741C103.014 308.524 102.486 308.416 101.848 308.416C101.244 308.416 100.746 308.507 100.354 308.688C99.9609 308.87 99.668 309.116 99.4746 309.427C99.2871 309.737 99.1934 310.092 99.1934 310.49C99.1934 310.76 99.249 311.006 99.3604 311.229C99.4775 311.445 99.6562 311.647 99.8965 311.835C100.143 312.022 100.453 312.195 100.828 312.354C101.209 312.512 101.663 312.664 102.19 312.811C102.917 313.016 103.544 313.244 104.071 313.496C104.599 313.748 105.032 314.032 105.372 314.349C105.718 314.659 105.973 315.014 106.137 315.412C106.307 315.805 106.392 316.25 106.392 316.748C106.392 317.27 106.286 317.741 106.075 318.163C105.864 318.585 105.562 318.945 105.17 319.244C104.777 319.543 104.306 319.774 103.755 319.938C103.21 320.097 102.601 320.176 101.927 320.176C101.335 320.176 100.752 320.094 100.178 319.93C99.6094 319.766 99.0908 319.52 98.6221 319.191C98.1592 318.863 97.7871 318.459 97.5059 317.979C97.2305 317.492 97.0928 316.93 97.0928 316.291H98.7803C98.7803 316.73 98.8652 317.108 99.0352 317.425C99.2051 317.735 99.4365 317.993 99.7295 318.198C100.028 318.403 100.365 318.556 100.74 318.655C101.121 318.749 101.517 318.796 101.927 318.796C102.519 318.796 103.02 318.714 103.43 318.55C103.84 318.386 104.15 318.151 104.361 317.847C104.578 317.542 104.687 317.182 104.687 316.766ZM112.289 310.49V311.738H107.147V310.49H112.289ZM108.888 308.179H110.514V317.645C110.514 317.967 110.563 318.21 110.663 318.374C110.763 318.538 110.892 318.646 111.05 318.699C111.208 318.752 111.378 318.778 111.56 318.778C111.694 318.778 111.835 318.767 111.981 318.743C112.134 318.714 112.248 318.69 112.324 318.673L112.333 320C112.204 320.041 112.034 320.079 111.823 320.114C111.618 320.155 111.369 320.176 111.076 320.176C110.678 320.176 110.312 320.097 109.978 319.938C109.644 319.78 109.377 319.517 109.178 319.147C108.984 318.772 108.888 318.269 108.888 317.636V308.179ZM119.804 318.374V313.479C119.804 313.104 119.728 312.778 119.575 312.503C119.429 312.222 119.206 312.005 118.907 311.853C118.608 311.7 118.239 311.624 117.8 311.624C117.39 311.624 117.029 311.694 116.719 311.835C116.414 311.976 116.174 312.16 115.998 312.389C115.828 312.617 115.743 312.863 115.743 313.127H114.117C114.117 312.787 114.205 312.45 114.381 312.116C114.557 311.782 114.809 311.48 115.137 311.211C115.471 310.936 115.869 310.719 116.332 310.561C116.801 310.396 117.322 310.314 117.896 310.314C118.588 310.314 119.197 310.432 119.725 310.666C120.258 310.9 120.674 311.255 120.973 311.729C121.277 312.198 121.43 312.787 121.43 313.496V317.926C121.43 318.242 121.456 318.579 121.509 318.937C121.567 319.294 121.652 319.602 121.764 319.859V320H120.067C119.985 319.812 119.921 319.563 119.874 319.253C119.827 318.937 119.804 318.644 119.804 318.374ZM120.085 314.234L120.103 315.377H118.459C117.996 315.377 117.583 315.415 117.22 315.491C116.856 315.562 116.552 315.67 116.306 315.816C116.06 315.963 115.872 316.147 115.743 316.37C115.614 316.587 115.55 316.842 115.55 317.135C115.55 317.434 115.617 317.706 115.752 317.952C115.887 318.198 116.089 318.395 116.358 318.541C116.634 318.682 116.971 318.752 117.369 318.752C117.867 318.752 118.307 318.646 118.688 318.436C119.068 318.225 119.37 317.967 119.593 317.662C119.821 317.357 119.944 317.062 119.962 316.774L120.656 317.557C120.615 317.803 120.504 318.075 120.322 318.374C120.141 318.673 119.897 318.96 119.593 319.235C119.294 319.505 118.937 319.73 118.521 319.912C118.11 320.088 117.647 320.176 117.132 320.176C116.487 320.176 115.922 320.05 115.436 319.798C114.955 319.546 114.58 319.209 114.311 318.787C114.047 318.359 113.915 317.882 113.915 317.354C113.915 316.845 114.015 316.396 114.214 316.01C114.413 315.617 114.7 315.292 115.075 315.034C115.45 314.771 115.901 314.571 116.429 314.437C116.956 314.302 117.545 314.234 118.195 314.234H120.085ZM125.613 311.984V320H123.987V310.49H125.569L125.613 311.984ZM128.584 310.438L128.575 311.949C128.44 311.92 128.312 311.902 128.188 311.896C128.071 311.885 127.937 311.879 127.784 311.879C127.409 311.879 127.078 311.938 126.791 312.055C126.504 312.172 126.261 312.336 126.062 312.547C125.862 312.758 125.704 313.01 125.587 313.303C125.476 313.59 125.402 313.906 125.367 314.252L124.91 314.516C124.91 313.941 124.966 313.402 125.077 312.898C125.194 312.395 125.373 311.949 125.613 311.562C125.854 311.17 126.158 310.865 126.527 310.648C126.902 310.426 127.348 310.314 127.863 310.314C127.98 310.314 128.115 310.329 128.268 310.358C128.42 310.382 128.525 310.408 128.584 310.438ZM134.508 310.49V311.738H129.366V310.49H134.508ZM131.106 308.179H132.732V317.645C132.732 317.967 132.782 318.21 132.882 318.374C132.981 318.538 133.11 318.646 133.269 318.699C133.427 318.752 133.597 318.778 133.778 318.778C133.913 318.778 134.054 318.767 134.2 318.743C134.353 318.714 134.467 318.69 134.543 318.673L134.552 320C134.423 320.041 134.253 320.079 134.042 320.114C133.837 320.155 133.588 320.176 133.295 320.176C132.896 320.176 132.53 320.097 132.196 319.938C131.862 319.78 131.596 319.517 131.396 319.147C131.203 318.772 131.106 318.269 131.106 317.636V308.179ZM145.688 314.015H142.444L142.427 312.652H145.371C145.857 312.652 146.282 312.57 146.646 312.406C147.009 312.242 147.29 312.008 147.489 311.703C147.694 311.393 147.797 311.023 147.797 310.596C147.797 310.127 147.706 309.746 147.524 309.453C147.349 309.154 147.076 308.938 146.707 308.803C146.344 308.662 145.881 308.592 145.318 308.592H142.822V320H141.126V307.203H145.318C145.975 307.203 146.561 307.271 147.076 307.405C147.592 307.534 148.028 307.739 148.386 308.021C148.749 308.296 149.024 308.647 149.212 309.075C149.399 309.503 149.493 310.016 149.493 310.613C149.493 311.141 149.358 311.618 149.089 312.046C148.819 312.468 148.444 312.813 147.964 313.083C147.489 313.353 146.933 313.525 146.294 313.602L145.688 314.015ZM145.608 320H141.776L142.734 318.62H145.608C146.147 318.62 146.604 318.526 146.979 318.339C147.36 318.151 147.65 317.888 147.85 317.548C148.049 317.202 148.148 316.795 148.148 316.326C148.148 315.852 148.063 315.441 147.894 315.096C147.724 314.75 147.457 314.483 147.094 314.296C146.73 314.108 146.262 314.015 145.688 314.015H143.271L143.288 312.652H146.593L146.953 313.145C147.568 313.197 148.09 313.373 148.518 313.672C148.945 313.965 149.271 314.34 149.493 314.797C149.722 315.254 149.836 315.758 149.836 316.309C149.836 317.105 149.66 317.779 149.309 318.33C148.963 318.875 148.474 319.291 147.841 319.578C147.208 319.859 146.464 320 145.608 320ZM157.702 318.374V313.479C157.702 313.104 157.626 312.778 157.474 312.503C157.327 312.222 157.104 312.005 156.806 311.853C156.507 311.7 156.138 311.624 155.698 311.624C155.288 311.624 154.928 311.694 154.617 311.835C154.312 311.976 154.072 312.16 153.896 312.389C153.727 312.617 153.642 312.863 153.642 313.127H152.016C152.016 312.787 152.104 312.45 152.279 312.116C152.455 311.782 152.707 311.48 153.035 311.211C153.369 310.936 153.768 310.719 154.23 310.561C154.699 310.396 155.221 310.314 155.795 310.314C156.486 310.314 157.096 310.432 157.623 310.666C158.156 310.9 158.572 311.255 158.871 311.729C159.176 312.198 159.328 312.787 159.328 313.496V317.926C159.328 318.242 159.354 318.579 159.407 318.937C159.466 319.294 159.551 319.602 159.662 319.859V320H157.966C157.884 319.812 157.819 319.563 157.772 319.253C157.726 318.937 157.702 318.644 157.702 318.374ZM157.983 314.234L158.001 315.377H156.357C155.895 315.377 155.481 315.415 155.118 315.491C154.755 315.562 154.45 315.67 154.204 315.816C153.958 315.963 153.771 316.147 153.642 316.37C153.513 316.587 153.448 316.842 153.448 317.135C153.448 317.434 153.516 317.706 153.65 317.952C153.785 318.198 153.987 318.395 154.257 318.541C154.532 318.682 154.869 318.752 155.268 318.752C155.766 318.752 156.205 318.646 156.586 318.436C156.967 318.225 157.269 317.967 157.491 317.662C157.72 317.357 157.843 317.062 157.86 316.774L158.555 317.557C158.514 317.803 158.402 318.075 158.221 318.374C158.039 318.673 157.796 318.96 157.491 319.235C157.192 319.505 156.835 319.73 156.419 319.912C156.009 320.088 155.546 320.176 155.03 320.176C154.386 320.176 153.82 320.05 153.334 319.798C152.854 319.546 152.479 319.209 152.209 318.787C151.945 318.359 151.813 317.882 151.813 317.354C151.813 316.845 151.913 316.396 152.112 316.01C152.312 315.617 152.599 315.292 152.974 315.034C153.349 314.771 153.8 314.571 154.327 314.437C154.854 314.302 155.443 314.234 156.094 314.234H157.983ZM163.652 306.5V320H162.018V306.5H163.652ZM171.87 318.374V313.479C171.87 313.104 171.794 312.778 171.642 312.503C171.495 312.222 171.272 312.005 170.974 311.853C170.675 311.7 170.306 311.624 169.866 311.624C169.456 311.624 169.096 311.694 168.785 311.835C168.48 311.976 168.24 312.16 168.064 312.389C167.895 312.617 167.81 312.863 167.81 313.127H166.184C166.184 312.787 166.271 312.45 166.447 312.116C166.623 311.782 166.875 311.48 167.203 311.211C167.537 310.936 167.936 310.719 168.398 310.561C168.867 310.396 169.389 310.314 169.963 310.314C170.654 310.314 171.264 310.432 171.791 310.666C172.324 310.9 172.74 311.255 173.039 311.729C173.344 312.198 173.496 312.787 173.496 313.496V317.926C173.496 318.242 173.522 318.579 173.575 318.937C173.634 319.294 173.719 319.602 173.83 319.859V320H172.134C172.052 319.812 171.987 319.563 171.94 319.253C171.894 318.937 171.87 318.644 171.87 318.374ZM172.151 314.234L172.169 315.377H170.525C170.062 315.377 169.649 315.415 169.286 315.491C168.923 315.562 168.618 315.67 168.372 315.816C168.126 315.963 167.938 316.147 167.81 316.37C167.681 316.587 167.616 316.842 167.616 317.135C167.616 317.434 167.684 317.706 167.818 317.952C167.953 318.198 168.155 318.395 168.425 318.541C168.7 318.682 169.037 318.752 169.436 318.752C169.934 318.752 170.373 318.646 170.754 318.436C171.135 318.225 171.437 317.967 171.659 317.662C171.888 317.357 172.011 317.062 172.028 316.774L172.723 317.557C172.682 317.803 172.57 318.075 172.389 318.374C172.207 318.673 171.964 318.96 171.659 319.235C171.36 319.505 171.003 319.73 170.587 319.912C170.177 320.088 169.714 320.176 169.198 320.176C168.554 320.176 167.988 320.05 167.502 319.798C167.021 319.546 166.646 319.209 166.377 318.787C166.113 318.359 165.981 317.882 165.981 317.354C165.981 316.845 166.081 316.396 166.28 316.01C166.479 315.617 166.767 315.292 167.142 315.034C167.517 314.771 167.968 314.571 168.495 314.437C169.022 314.302 169.611 314.234 170.262 314.234H172.151ZM177.68 312.521V320H176.054V310.49H177.592L177.68 312.521ZM177.293 314.885L176.616 314.858C176.622 314.208 176.719 313.607 176.906 313.057C177.094 312.5 177.357 312.017 177.697 311.606C178.037 311.196 178.441 310.88 178.91 310.657C179.385 310.429 179.909 310.314 180.483 310.314C180.952 310.314 181.374 310.379 181.749 310.508C182.124 310.631 182.443 310.83 182.707 311.105C182.977 311.381 183.182 311.738 183.322 312.178C183.463 312.611 183.533 313.142 183.533 313.769V320H181.898V313.751C181.898 313.253 181.825 312.854 181.679 312.556C181.532 312.251 181.318 312.031 181.037 311.896C180.756 311.756 180.41 311.686 180 311.686C179.596 311.686 179.227 311.771 178.893 311.94C178.564 312.11 178.28 312.345 178.04 312.644C177.806 312.942 177.621 313.285 177.486 313.672C177.357 314.053 177.293 314.457 177.293 314.885ZM189.809 318.84C190.195 318.84 190.553 318.761 190.881 318.603C191.209 318.444 191.479 318.228 191.689 317.952C191.9 317.671 192.021 317.352 192.05 316.994H193.597C193.567 317.557 193.377 318.081 193.025 318.567C192.68 319.048 192.226 319.438 191.663 319.736C191.101 320.029 190.482 320.176 189.809 320.176C189.094 320.176 188.47 320.05 187.937 319.798C187.409 319.546 186.97 319.2 186.618 318.761C186.272 318.321 186.012 317.817 185.836 317.249C185.666 316.675 185.581 316.068 185.581 315.43V315.061C185.581 314.422 185.666 313.818 185.836 313.25C186.012 312.676 186.272 312.169 186.618 311.729C186.97 311.29 187.409 310.944 187.937 310.692C188.47 310.44 189.094 310.314 189.809 310.314C190.553 310.314 191.203 310.467 191.76 310.771C192.316 311.07 192.753 311.48 193.069 312.002C193.392 312.518 193.567 313.104 193.597 313.76H192.05C192.021 313.367 191.909 313.013 191.716 312.696C191.528 312.38 191.271 312.128 190.942 311.94C190.62 311.747 190.242 311.65 189.809 311.65C189.311 311.65 188.892 311.75 188.552 311.949C188.218 312.143 187.951 312.406 187.752 312.74C187.559 313.068 187.418 313.435 187.33 313.839C187.248 314.237 187.207 314.645 187.207 315.061V315.43C187.207 315.846 187.248 316.256 187.33 316.66C187.412 317.064 187.55 317.431 187.743 317.759C187.942 318.087 188.209 318.351 188.543 318.55C188.883 318.743 189.305 318.84 189.809 318.84ZM197.191 310.49V320H195.557V310.49H197.191ZM195.434 307.968C195.434 307.704 195.513 307.481 195.671 307.3C195.835 307.118 196.075 307.027 196.392 307.027C196.702 307.027 196.939 307.118 197.104 307.3C197.273 307.481 197.358 307.704 197.358 307.968C197.358 308.22 197.273 308.437 197.104 308.618C196.939 308.794 196.702 308.882 196.392 308.882C196.075 308.882 195.835 308.794 195.671 308.618C195.513 308.437 195.434 308.22 195.434 307.968ZM201.428 312.521V320H199.802V310.49H201.34L201.428 312.521ZM201.041 314.885L200.364 314.858C200.37 314.208 200.467 313.607 200.654 313.057C200.842 312.5 201.105 312.017 201.445 311.606C201.785 311.196 202.189 310.88 202.658 310.657C203.133 310.429 203.657 310.314 204.231 310.314C204.7 310.314 205.122 310.379 205.497 310.508C205.872 310.631 206.191 310.83 206.455 311.105C206.725 311.381 206.93 311.738 207.07 312.178C207.211 312.611 207.281 313.142 207.281 313.769V320H205.646V313.751C205.646 313.253 205.573 312.854 205.427 312.556C205.28 312.251 205.066 312.031 204.785 311.896C204.504 311.756 204.158 311.686 203.748 311.686C203.344 311.686 202.975 311.771 202.641 311.94C202.312 312.11 202.028 312.345 201.788 312.644C201.554 312.942 201.369 313.285 201.234 313.672C201.105 314.053 201.041 314.457 201.041 314.885ZM215.912 310.49H217.389V319.798C217.389 320.636 217.219 321.351 216.879 321.942C216.539 322.534 216.064 322.982 215.455 323.287C214.852 323.598 214.154 323.753 213.363 323.753C213.035 323.753 212.648 323.7 212.203 323.595C211.764 323.495 211.33 323.322 210.902 323.076C210.48 322.836 210.126 322.511 209.839 322.101L210.691 321.134C211.09 321.614 211.506 321.948 211.939 322.136C212.379 322.323 212.812 322.417 213.24 322.417C213.756 322.417 214.201 322.32 214.576 322.127C214.951 321.934 215.241 321.646 215.446 321.266C215.657 320.891 215.763 320.428 215.763 319.877V312.582L215.912 310.49ZM209.364 315.351V315.166C209.364 314.439 209.449 313.78 209.619 313.188C209.795 312.591 210.044 312.078 210.366 311.65C210.694 311.223 211.09 310.895 211.553 310.666C212.016 310.432 212.537 310.314 213.117 310.314C213.715 310.314 214.236 310.42 214.682 310.631C215.133 310.836 215.514 311.138 215.824 311.536C216.141 311.929 216.39 312.403 216.571 312.96C216.753 313.517 216.879 314.146 216.949 314.85V315.658C216.885 316.355 216.759 316.982 216.571 317.539C216.39 318.096 216.141 318.57 215.824 318.963C215.514 319.355 215.133 319.657 214.682 319.868C214.23 320.073 213.703 320.176 213.1 320.176C212.531 320.176 212.016 320.056 211.553 319.815C211.096 319.575 210.703 319.238 210.375 318.805C210.047 318.371 209.795 317.861 209.619 317.275C209.449 316.684 209.364 316.042 209.364 315.351ZM210.99 315.166V315.351C210.99 315.825 211.037 316.271 211.131 316.687C211.23 317.103 211.38 317.469 211.579 317.785C211.784 318.102 212.045 318.351 212.361 318.532C212.678 318.708 213.056 318.796 213.495 318.796C214.034 318.796 214.479 318.682 214.831 318.453C215.183 318.225 215.461 317.923 215.666 317.548C215.877 317.173 216.041 316.766 216.158 316.326V314.208C216.094 313.886 215.994 313.575 215.859 313.276C215.73 312.972 215.561 312.702 215.35 312.468C215.145 312.228 214.89 312.037 214.585 311.896C214.28 311.756 213.923 311.686 213.513 311.686C213.067 311.686 212.684 311.779 212.361 311.967C212.045 312.148 211.784 312.4 211.579 312.723C211.38 313.039 211.23 313.408 211.131 313.83C211.037 314.246 210.99 314.691 210.99 315.166Z" fill="white"/>
<path d="M48.1136 181V163.545H50.2273V179.125H58.3409V181H48.1136ZM66.8295 181.273C65.5682 181.273 64.4801 180.994 63.5653 180.438C62.6562 179.875 61.9545 179.091 61.4602 178.085C60.9716 177.074 60.7273 175.898 60.7273 174.557C60.7273 173.216 60.9716 172.034 61.4602 171.011C61.9545 169.983 62.642 169.182 63.5227 168.608C64.4091 168.028 65.4432 167.739 66.625 167.739C67.3068 167.739 67.9801 167.852 68.6449 168.08C69.3097 168.307 69.9148 168.676 70.4602 169.188C71.0057 169.693 71.4403 170.364 71.7642 171.199C72.0881 172.034 72.25 173.062 72.25 174.284V175.136H62.1591V173.398H70.2045C70.2045 172.659 70.0568 172 69.7614 171.42C69.4716 170.841 69.0568 170.384 68.517 170.048C67.983 169.713 67.3523 169.545 66.625 169.545C65.8239 169.545 65.1307 169.744 64.5455 170.142C63.9659 170.534 63.5199 171.045 63.2074 171.676C62.8949 172.307 62.7386 172.983 62.7386 173.705V174.864C62.7386 175.852 62.9091 176.69 63.25 177.378C63.5966 178.06 64.0767 178.58 64.6903 178.938C65.304 179.29 66.017 179.466 66.8295 179.466C67.358 179.466 67.8352 179.392 68.2614 179.244C68.6932 179.091 69.0653 178.864 69.3778 178.562C69.6903 178.256 69.9318 177.875 70.1023 177.42L72.0455 177.966C71.8409 178.625 71.4972 179.205 71.0142 179.705C70.5313 180.199 69.9347 180.585 69.2244 180.864C68.5142 181.136 67.7159 181.273 66.8295 181.273ZM85.6158 167.909L80.7749 181H78.7294L73.8885 167.909H76.0703L79.6839 178.341H79.8203L83.4339 167.909H85.6158ZM93.2905 181.273C92.0291 181.273 90.9411 180.994 90.0263 180.438C89.1172 179.875 88.4155 179.091 87.9212 178.085C87.4325 177.074 87.1882 175.898 87.1882 174.557C87.1882 173.216 87.4325 172.034 87.9212 171.011C88.4155 169.983 89.103 169.182 89.9837 168.608C90.87 168.028 91.9041 167.739 93.0859 167.739C93.7678 167.739 94.4411 167.852 95.1058 168.08C95.7706 168.307 96.3757 168.676 96.9212 169.188C97.4666 169.693 97.9013 170.364 98.2251 171.199C98.549 172.034 98.7109 173.062 98.7109 174.284V175.136H88.62V173.398H96.6655C96.6655 172.659 96.5178 172 96.2223 171.42C95.9325 170.841 95.5178 170.384 94.978 170.048C94.4439 169.713 93.8132 169.545 93.0859 169.545C92.2848 169.545 91.5916 169.744 91.0064 170.142C90.4268 170.534 89.9808 171.045 89.6683 171.676C89.3558 172.307 89.1996 172.983 89.1996 173.705V174.864C89.1996 175.852 89.37 176.69 89.7109 177.378C90.0575 178.06 90.5376 178.58 91.1513 178.938C91.7649 179.29 92.478 179.466 93.2905 179.466C93.8189 179.466 94.2962 179.392 94.7223 179.244C95.1541 179.091 95.5263 178.864 95.8388 178.562C96.1513 178.256 96.3928 177.875 96.5632 177.42L98.5064 177.966C98.3018 178.625 97.9581 179.205 97.4751 179.705C96.9922 180.199 96.3956 180.585 95.6854 180.864C94.9751 181.136 94.1768 181.273 93.2905 181.273ZM103.782 163.545V181H101.771V163.545H103.782ZM117.182 181L113.193 167.909H115.307L118.136 177.932H118.273L121.068 167.909H123.216L125.977 177.898H126.114L128.943 167.909H131.057L127.068 181H125.091L122.227 170.943H122.023L119.159 181H117.182ZM133.716 181V167.909H135.727V181H133.716ZM134.739 165.727C134.347 165.727 134.009 165.594 133.724 165.327C133.446 165.06 133.307 164.739 133.307 164.364C133.307 163.989 133.446 163.668 133.724 163.401C134.009 163.134 134.347 163 134.739 163C135.131 163 135.466 163.134 135.744 163.401C136.028 163.668 136.17 163.989 136.17 164.364C136.17 164.739 136.028 165.06 135.744 165.327C135.466 165.594 135.131 165.727 134.739 165.727ZM145.104 167.909V169.614H138.32V167.909H145.104ZM140.298 164.773H142.309V177.25C142.309 177.818 142.391 178.244 142.556 178.528C142.727 178.807 142.942 178.994 143.204 179.091C143.471 179.182 143.752 179.227 144.048 179.227C144.269 179.227 144.451 179.216 144.593 179.193C144.735 179.165 144.849 179.142 144.934 179.125L145.343 180.932C145.207 180.983 145.016 181.034 144.772 181.085C144.528 181.142 144.218 181.17 143.843 181.17C143.275 181.17 142.718 181.048 142.173 180.804C141.633 180.56 141.184 180.188 140.826 179.688C140.474 179.188 140.298 178.557 140.298 177.795V164.773ZM150.423 173.125V181H148.411V163.545H150.423V169.955H150.593C150.9 169.278 151.36 168.741 151.974 168.344C152.593 167.94 153.417 167.739 154.445 167.739C155.337 167.739 156.119 167.918 156.789 168.276C157.46 168.628 157.979 169.17 158.349 169.903C158.724 170.631 158.911 171.557 158.911 172.682V181H156.9V172.818C156.9 171.778 156.63 170.974 156.09 170.406C155.556 169.832 154.815 169.545 153.866 169.545C153.207 169.545 152.616 169.685 152.093 169.963C151.576 170.241 151.167 170.648 150.866 171.182C150.57 171.716 150.423 172.364 150.423 173.125ZM170.636 185.909C170.295 185.909 169.991 185.881 169.724 185.824C169.457 185.773 169.273 185.722 169.17 185.67L169.682 183.898C170.17 184.023 170.602 184.068 170.977 184.034C171.352 184 171.685 183.832 171.974 183.531C172.27 183.236 172.54 182.756 172.784 182.091L173.159 181.068L168.318 167.909H170.5L174.114 178.341H174.25L177.864 167.909H180.045L174.489 182.909C174.239 183.585 173.929 184.145 173.56 184.588C173.19 185.037 172.761 185.369 172.273 185.585C171.79 185.801 171.244 185.909 170.636 185.909ZM187.55 181.273C186.368 181.273 185.331 180.991 184.439 180.429C183.553 179.866 182.859 179.08 182.359 178.068C181.865 177.057 181.618 175.875 181.618 174.523C181.618 173.159 181.865 171.969 182.359 170.952C182.859 169.935 183.553 169.145 184.439 168.582C185.331 168.02 186.368 167.739 187.55 167.739C188.732 167.739 189.766 168.02 190.652 168.582C191.544 169.145 192.237 169.935 192.732 170.952C193.232 171.969 193.482 173.159 193.482 174.523C193.482 175.875 193.232 177.057 192.732 178.068C192.237 179.08 191.544 179.866 190.652 180.429C189.766 180.991 188.732 181.273 187.55 181.273ZM187.55 179.466C188.447 179.466 189.186 179.236 189.766 178.776C190.345 178.315 190.774 177.71 191.053 176.96C191.331 176.21 191.47 175.398 191.47 174.523C191.47 173.648 191.331 172.832 191.053 172.077C190.774 171.321 190.345 170.71 189.766 170.244C189.186 169.778 188.447 169.545 187.55 169.545C186.652 169.545 185.913 169.778 185.334 170.244C184.754 170.71 184.325 171.321 184.047 172.077C183.768 172.832 183.629 173.648 183.629 174.523C183.629 175.398 183.768 176.21 184.047 176.96C184.325 177.71 184.754 178.315 185.334 178.776C185.913 179.236 186.652 179.466 187.55 179.466ZM204.802 175.648V167.909H206.813V181H204.802V178.784H204.665C204.359 179.449 203.881 180.014 203.234 180.48C202.586 180.94 201.768 181.17 200.779 181.17C199.961 181.17 199.234 180.991 198.597 180.634C197.961 180.27 197.461 179.724 197.097 178.997C196.734 178.264 196.552 177.341 196.552 176.227V167.909H198.563V176.091C198.563 177.045 198.83 177.807 199.364 178.375C199.904 178.943 200.592 179.227 201.427 179.227C201.927 179.227 202.435 179.099 202.952 178.844C203.475 178.588 203.913 178.196 204.265 177.668C204.623 177.139 204.802 176.466 204.802 175.648ZM210.497 181V167.909H212.44V169.886H212.577C212.815 169.239 213.247 168.713 213.872 168.31C214.497 167.906 215.202 167.705 215.986 167.705C216.134 167.705 216.318 167.707 216.54 167.713C216.761 167.719 216.929 167.727 217.043 167.739V169.784C216.974 169.767 216.818 169.741 216.574 169.707C216.335 169.668 216.082 169.648 215.815 169.648C215.179 169.648 214.611 169.781 214.111 170.048C213.616 170.31 213.224 170.673 212.935 171.139C212.651 171.599 212.509 172.125 212.509 172.716V181H210.497ZM226.177 181V167.909H228.12V169.955H228.29C228.563 169.256 229.004 168.713 229.612 168.327C230.219 167.935 230.95 167.739 231.802 167.739C232.665 167.739 233.384 167.935 233.958 168.327C234.538 168.713 234.989 169.256 235.313 169.955H235.45C235.785 169.278 236.288 168.741 236.958 168.344C237.629 167.94 238.433 167.739 239.37 167.739C240.54 167.739 241.498 168.105 242.242 168.838C242.987 169.565 243.359 170.699 243.359 172.239V181H241.347V172.239C241.347 171.273 241.083 170.582 240.555 170.168C240.026 169.753 239.404 169.545 238.688 169.545C237.768 169.545 237.055 169.824 236.549 170.381C236.043 170.932 235.79 171.631 235.79 172.477V181H233.745V172.034C233.745 171.29 233.504 170.69 233.021 170.236C232.538 169.776 231.915 169.545 231.154 169.545C230.631 169.545 230.143 169.685 229.688 169.963C229.239 170.241 228.876 170.628 228.597 171.122C228.325 171.611 228.188 172.176 228.188 172.818V181H226.177ZM252.354 181.273C251.173 181.273 250.136 180.991 249.244 180.429C248.357 179.866 247.664 179.08 247.164 178.068C246.67 177.057 246.423 175.875 246.423 174.523C246.423 173.159 246.67 171.969 247.164 170.952C247.664 169.935 248.357 169.145 249.244 168.582C250.136 168.02 251.173 167.739 252.354 167.739C253.536 167.739 254.57 168.02 255.457 168.582C256.349 169.145 257.042 169.935 257.536 170.952C258.036 171.969 258.286 173.159 258.286 174.523C258.286 175.875 258.036 177.057 257.536 178.068C257.042 179.08 256.349 179.866 255.457 180.429C254.57 180.991 253.536 181.273 252.354 181.273ZM252.354 179.466C253.252 179.466 253.991 179.236 254.57 178.776C255.15 178.315 255.579 177.71 255.857 176.96C256.136 176.21 256.275 175.398 256.275 174.523C256.275 173.648 256.136 172.832 255.857 172.077C255.579 171.321 255.15 170.71 254.57 170.244C253.991 169.778 253.252 169.545 252.354 169.545C251.457 169.545 250.718 169.778 250.138 170.244C249.559 170.71 249.13 171.321 248.852 172.077C248.573 172.832 248.434 173.648 248.434 174.523C248.434 175.398 248.573 176.21 248.852 176.96C249.13 177.71 249.559 178.315 250.138 178.776C250.718 179.236 251.457 179.466 252.354 179.466ZM263.368 173.125V181H261.357V167.909H263.3V169.955H263.47C263.777 169.29 264.243 168.756 264.868 168.352C265.493 167.943 266.3 167.739 267.288 167.739C268.175 167.739 268.95 167.92 269.615 168.284C270.28 168.642 270.797 169.188 271.166 169.92C271.536 170.648 271.72 171.568 271.72 172.682V181H269.709V172.818C269.709 171.79 269.442 170.989 268.908 170.415C268.374 169.835 267.641 169.545 266.709 169.545C266.067 169.545 265.493 169.685 264.987 169.963C264.487 170.241 264.092 170.648 263.803 171.182C263.513 171.716 263.368 172.364 263.368 173.125ZM280.884 181.273C279.623 181.273 278.535 180.994 277.62 180.438C276.711 179.875 276.009 179.091 275.515 178.085C275.026 177.074 274.782 175.898 274.782 174.557C274.782 173.216 275.026 172.034 275.515 171.011C276.009 169.983 276.697 169.182 277.577 168.608C278.464 168.028 279.498 167.739 280.68 167.739C281.362 167.739 282.035 167.852 282.7 168.08C283.364 168.307 283.969 168.676 284.515 169.188C285.06 169.693 285.495 170.364 285.819 171.199C286.143 172.034 286.305 173.062 286.305 174.284V175.136H276.214V173.398H284.259C284.259 172.659 284.112 172 283.816 171.42C283.526 170.841 283.112 170.384 282.572 170.048C282.038 169.713 281.407 169.545 280.68 169.545C279.879 169.545 279.185 169.744 278.6 170.142C278.021 170.534 277.575 171.045 277.262 171.676C276.95 172.307 276.793 172.983 276.793 173.705V174.864C276.793 175.852 276.964 176.69 277.305 177.378C277.651 178.06 278.131 178.58 278.745 178.938C279.359 179.29 280.072 179.466 280.884 179.466C281.413 179.466 281.89 179.392 282.316 179.244C282.748 179.091 283.12 178.864 283.433 178.562C283.745 178.256 283.987 177.875 284.157 177.42L286.1 177.966C285.896 178.625 285.552 179.205 285.069 179.705C284.586 180.199 283.989 180.585 283.279 180.864C282.569 181.136 281.771 181.273 280.884 181.273ZM290.261 185.909C289.92 185.909 289.616 185.881 289.349 185.824C289.082 185.773 288.898 185.722 288.795 185.67L289.307 183.898C289.795 184.023 290.227 184.068 290.602 184.034C290.977 184 291.31 183.832 291.599 183.531C291.895 183.236 292.165 182.756 292.409 182.091L292.784 181.068L287.943 167.909H290.125L293.739 178.341H293.875L297.489 167.909H299.67L294.114 182.909C293.864 183.585 293.554 184.145 293.185 184.588C292.815 185.037 292.386 185.369 291.898 185.585C291.415 185.801 290.869 185.909 290.261 185.909ZM314.768 167.909V169.614H307.984V167.909H314.768ZM309.962 164.773H311.973V177.25C311.973 177.818 312.055 178.244 312.22 178.528C312.391 178.807 312.607 178.994 312.868 179.091C313.135 179.182 313.416 179.227 313.712 179.227C313.933 179.227 314.115 179.216 314.257 179.193C314.399 179.165 314.513 179.142 314.598 179.125L315.007 180.932C314.871 180.983 314.68 181.034 314.436 181.085C314.192 181.142 313.882 181.17 313.507 181.17C312.939 181.17 312.382 181.048 311.837 180.804C311.297 180.56 310.848 180.188 310.49 179.688C310.138 179.188 309.962 178.557 309.962 177.795V164.773ZM322.972 181.273C321.79 181.273 320.753 180.991 319.861 180.429C318.974 179.866 318.281 179.08 317.781 178.068C317.287 177.057 317.04 175.875 317.04 174.523C317.04 173.159 317.287 171.969 317.781 170.952C318.281 169.935 318.974 169.145 319.861 168.582C320.753 168.02 321.79 167.739 322.972 167.739C324.153 167.739 325.188 168.02 326.074 168.582C326.966 169.145 327.659 169.935 328.153 170.952C328.653 171.969 328.903 173.159 328.903 174.523C328.903 175.875 328.653 177.057 328.153 178.068C327.659 179.08 326.966 179.866 326.074 180.429C325.188 180.991 324.153 181.273 322.972 181.273ZM322.972 179.466C323.869 179.466 324.608 179.236 325.188 178.776C325.767 178.315 326.196 177.71 326.474 176.96C326.753 176.21 326.892 175.398 326.892 174.523C326.892 173.648 326.753 172.832 326.474 172.077C326.196 171.321 325.767 170.71 325.188 170.244C324.608 169.778 323.869 169.545 322.972 169.545C322.074 169.545 321.335 169.778 320.756 170.244C320.176 170.71 319.747 171.321 319.469 172.077C319.19 172.832 319.051 173.648 319.051 174.523C319.051 175.398 319.19 176.21 319.469 176.96C319.747 177.71 320.176 178.315 320.756 178.776C321.335 179.236 322.074 179.466 322.972 179.466ZM336.917 181.273C335.826 181.273 334.863 180.997 334.028 180.446C333.192 179.889 332.539 179.105 332.067 178.094C331.596 177.077 331.36 175.875 331.36 174.489C331.36 173.114 331.596 171.92 332.067 170.909C332.539 169.898 333.195 169.116 334.036 168.565C334.877 168.014 335.849 167.739 336.951 167.739C337.803 167.739 338.477 167.881 338.971 168.165C339.471 168.443 339.852 168.761 340.113 169.119C340.38 169.472 340.587 169.761 340.735 169.989H340.906V163.545H342.917V181H340.974V178.989H340.735C340.587 179.227 340.377 179.528 340.104 179.892C339.832 180.25 339.442 180.571 338.937 180.855C338.431 181.134 337.758 181.273 336.917 181.273ZM337.19 179.466C337.996 179.466 338.678 179.256 339.235 178.835C339.792 178.409 340.215 177.821 340.505 177.071C340.795 176.315 340.94 175.443 340.94 174.455C340.94 173.477 340.798 172.622 340.513 171.889C340.229 171.151 339.809 170.577 339.252 170.168C338.695 169.753 338.008 169.545 337.19 169.545C336.337 169.545 335.627 169.764 335.059 170.202C334.496 170.634 334.073 171.222 333.789 171.966C333.511 172.705 333.371 173.534 333.371 174.455C333.371 175.386 333.513 176.233 333.798 176.994C334.087 177.75 334.513 178.352 335.076 178.801C335.644 179.244 336.349 179.466 337.19 179.466ZM350.732 181.307C349.903 181.307 349.15 181.151 348.474 180.838C347.798 180.52 347.261 180.062 346.863 179.466C346.465 178.864 346.266 178.136 346.266 177.284C346.266 176.534 346.414 175.926 346.71 175.46C347.005 174.989 347.4 174.619 347.894 174.352C348.388 174.085 348.934 173.886 349.531 173.756C350.133 173.619 350.738 173.511 351.346 173.432C352.141 173.33 352.786 173.253 353.281 173.202C353.781 173.145 354.144 173.051 354.371 172.92C354.604 172.79 354.721 172.562 354.721 172.239V172.17C354.721 171.33 354.491 170.676 354.031 170.21C353.576 169.744 352.886 169.511 351.96 169.511C350.999 169.511 350.246 169.722 349.701 170.142C349.156 170.562 348.772 171.011 348.55 171.489L346.641 170.807C346.982 170.011 347.437 169.392 348.005 168.949C348.579 168.5 349.204 168.187 349.88 168.011C350.562 167.83 351.232 167.739 351.891 167.739C352.312 167.739 352.795 167.79 353.34 167.892C353.891 167.989 354.423 168.19 354.934 168.497C355.451 168.804 355.88 169.267 356.221 169.886C356.562 170.506 356.732 171.335 356.732 172.375V181H354.721V179.227H354.619C354.482 179.511 354.255 179.815 353.937 180.139C353.619 180.463 353.195 180.739 352.667 180.966C352.138 181.193 351.494 181.307 350.732 181.307ZM351.039 179.5C351.835 179.5 352.505 179.344 353.05 179.031C353.602 178.719 354.016 178.315 354.295 177.821C354.579 177.327 354.721 176.807 354.721 176.261V174.42C354.636 174.523 354.448 174.616 354.158 174.702C353.874 174.781 353.545 174.852 353.17 174.915C352.8 174.972 352.44 175.023 352.087 175.068C351.741 175.108 351.46 175.142 351.244 175.17C350.721 175.239 350.232 175.349 349.778 175.503C349.329 175.651 348.965 175.875 348.687 176.176C348.414 176.472 348.278 176.875 348.278 177.386C348.278 178.085 348.536 178.614 349.053 178.972C349.576 179.324 350.238 179.5 351.039 179.5ZM361.23 185.909C360.889 185.909 360.585 185.881 360.318 185.824C360.051 185.773 359.866 185.722 359.764 185.67L360.276 183.898C360.764 184.023 361.196 184.068 361.571 184.034C361.946 184 362.278 183.832 362.568 183.531C362.864 183.236 363.134 182.756 363.378 182.091L363.753 181.068L358.912 167.909H361.094L364.707 178.341H364.844L368.457 167.909H370.639L365.082 182.909C364.832 183.585 364.523 184.145 364.153 184.588C363.784 185.037 363.355 185.369 362.866 185.585C362.384 185.801 361.838 185.909 361.23 185.909Z" fill="black"/>
<path d="M54.12 73.6V82.96H64.72V85.76H54.12V98H50.44V70.8H66.32V73.6H54.12ZM73.1663 70.04C72.5529 70.04 72.0196 69.8267 71.5663 69.4C71.1129 68.9467 70.8863 68.4133 70.8863 67.8C70.8863 67.16 71.1129 66.6133 71.5663 66.16C72.0196 65.7067 72.5529 65.48 73.1663 65.48C73.8063 65.48 74.3529 65.7067 74.8063 66.16C75.2596 66.6133 75.4863 67.16 75.4863 67.8C75.4863 68.4133 75.2596 68.9467 74.8063 69.4C74.3529 69.8267 73.8063 70.04 73.1663 70.04ZM71.4063 76.64H74.9663V98H71.4063V76.64ZM93.5678 75.92C95.9145 75.92 97.5278 76.5467 98.4078 77.8C99.3145 79.0267 99.7678 80.8 99.7678 83.12V98H96.2078V83.44C96.2078 81.76 95.9411 80.56 95.4078 79.84C94.8745 79.12 93.9545 78.76 92.6478 78.76C91.6611 78.76 90.6611 78.9867 89.6478 79.44C88.6345 79.8933 87.5278 80.5867 86.3278 81.52V98H82.7678V76.64H85.5278L86.0478 78.88C88.6345 76.9067 91.1411 75.92 93.5678 75.92ZM123.704 66V98H120.944L120.544 96.2C118.597 97.88 116.45 98.72 114.104 98.72C112.37 98.72 110.824 98.2933 109.464 97.44C108.13 96.56 107.09 95.2933 106.344 93.64C105.597 91.9867 105.224 90 105.224 87.68C105.224 83.7867 106.21 80.8533 108.184 78.88C110.184 76.9067 112.837 75.92 116.144 75.92C117.637 75.92 118.97 76.1467 120.144 76.6V66H123.704ZM108.864 87.68C108.864 90.56 109.384 92.6533 110.424 93.96C111.49 95.2667 112.797 95.92 114.344 95.92C115.464 95.92 116.45 95.7467 117.304 95.4C118.157 95.0533 119.104 94.4933 120.144 93.72V79.36C119.024 78.9067 117.744 78.68 116.304 78.68C113.797 78.68 111.93 79.4933 110.704 81.12C109.477 82.72 108.864 84.9067 108.864 87.68ZM152.205 86.96V98H148.525V87L138.485 70.8H142.525L150.405 84.08L158.285 70.8H162.285L152.205 86.96ZM175.504 98.72C173.264 98.72 171.37 98.2133 169.824 97.2C168.277 96.1867 167.117 94.8267 166.344 93.12C165.597 91.3867 165.224 89.4667 165.224 87.36C165.224 85.2267 165.597 83.2933 166.344 81.56C167.117 79.8267 168.277 78.4533 169.824 77.44C171.37 76.4267 173.264 75.92 175.504 75.92C177.717 75.92 179.597 76.44 181.144 77.48C182.69 78.52 183.837 79.9067 184.584 81.64C185.357 83.3467 185.744 85.2267 185.744 87.28C185.744 89.36 185.357 91.2667 184.584 93C183.837 94.7333 182.69 96.12 181.144 97.16C179.597 98.2 177.717 98.72 175.504 98.72ZM175.464 95.96C177.597 95.96 179.237 95.1867 180.384 93.64C181.53 92.0667 182.104 89.96 182.104 87.32C182.104 84.7067 181.53 82.6133 180.384 81.04C179.237 79.4667 177.597 78.68 175.464 78.68C173.33 78.68 171.69 79.4667 170.544 81.04C169.424 82.6133 168.864 84.7067 168.864 87.32C168.864 89.96 169.424 92.0667 170.544 93.64C171.69 95.1867 173.33 95.96 175.464 95.96ZM208.201 76.64V98H205.441L204.921 95.76C202.334 97.7333 199.827 98.72 197.401 98.72C195.054 98.72 193.427 98.1067 192.521 96.88C191.641 95.6267 191.201 93.84 191.201 91.52V76.64H194.761V91.2C194.761 92.88 195.027 94.08 195.561 94.8C196.094 95.52 197.014 95.88 198.321 95.88C199.307 95.88 200.307 95.6533 201.321 95.2C202.334 94.7467 203.441 94.0533 204.641 93.12V76.64H208.201ZM226.857 79.28C225.577 79.28 224.35 79.5067 223.177 79.96C222.03 80.3867 220.737 81.1867 219.297 82.36V98H215.737V76.64H218.497L219.137 79.52C220.443 78.2133 221.71 77.2933 222.937 76.76C224.19 76.2267 225.497 75.96 226.857 75.96V79.28ZM255.591 83.64C257.485 84.04 258.925 84.8533 259.911 86.08C260.925 87.28 261.431 88.7467 261.431 90.48C261.431 92.7733 260.578 94.6 258.871 95.96C257.191 97.32 254.765 98 251.591 98H242.471V70.8H251.591C254.391 70.8 256.525 71.4133 257.991 72.64C259.485 73.84 260.231 75.5333 260.231 77.72C260.231 79.1333 259.831 80.3733 259.031 81.44C258.231 82.5067 257.085 83.24 255.591 83.64ZM246.151 73.56V82.32H251.591C253.165 82.32 254.378 81.9333 255.231 81.16C256.111 80.3867 256.551 79.32 256.551 77.96C256.551 76.4933 256.125 75.4 255.271 74.68C254.418 73.9333 253.191 73.56 251.591 73.56H246.151ZM251.591 95.24C253.565 95.24 255.085 94.8 256.151 93.92C257.218 93.0133 257.751 91.76 257.751 90.16C257.751 88.4533 257.218 87.1867 256.151 86.36C255.111 85.5067 253.591 85.08 251.591 85.08H246.151V95.24H251.591ZM284.784 97.96C283.824 98.3067 282.864 98.4933 281.904 98.52C280.837 98.52 279.957 98.3067 279.264 97.88C278.597 97.4533 278.184 96.7067 278.024 95.64C275.49 97.5867 273.144 98.56 270.984 98.56C269.304 98.56 267.93 98.08 266.864 97.12C265.797 96.1333 265.264 94.9067 265.264 93.44C265.264 92.08 265.637 90.96 266.384 90.08C267.13 89.1733 268.17 88.4267 269.504 87.84C270.864 87.2533 272.69 86.6267 274.984 85.96L277.944 85.12V83.56C277.944 80.36 276.73 78.76 274.304 78.76C272.97 78.76 271.744 79.04 270.624 79.6C269.504 80.1333 268.237 81.1467 266.824 82.64L265.344 80.4C268.33 77.4133 271.544 75.92 274.984 75.92C277.277 75.92 278.93 76.52 279.944 77.72C280.984 78.92 281.504 80.92 281.504 83.72V94.16C281.504 94.7467 281.61 95.1733 281.824 95.44C282.037 95.68 282.37 95.8 282.824 95.8C283.224 95.8 283.797 95.6667 284.544 95.4L284.784 97.96ZM268.824 93.16C268.824 94.0667 269.09 94.7333 269.624 95.16C270.157 95.5867 270.864 95.8 271.744 95.8C272.65 95.8 273.584 95.5733 274.544 95.12C275.53 94.6667 276.664 93.9733 277.944 93.04V87.48L275.664 88.16C273.13 88.9333 271.357 89.68 270.344 90.4C269.33 91.12 268.824 92.04 268.824 93.16ZM289.291 66H292.851V98H289.291V66ZM318.104 97.96C317.144 98.3067 316.184 98.4933 315.224 98.52C314.157 98.52 313.277 98.3067 312.584 97.88C311.917 97.4533 311.504 96.7067 311.344 95.64C308.811 97.5867 306.464 98.56 304.304 98.56C302.624 98.56 301.251 98.08 300.184 97.12C299.117 96.1333 298.584 94.9067 298.584 93.44C298.584 92.08 298.957 90.96 299.704 90.08C300.451 89.1733 301.491 88.4267 302.824 87.84C304.184 87.2533 306.011 86.6267 308.304 85.96L311.264 85.12V83.56C311.264 80.36 310.051 78.76 307.624 78.76C306.291 78.76 305.064 79.04 303.944 79.6C302.824 80.1333 301.557 81.1467 300.144 82.64L298.664 80.4C301.651 77.4133 304.864 75.92 308.304 75.92C310.597 75.92 312.251 76.52 313.264 77.72C314.304 78.92 314.824 80.92 314.824 83.72V94.16C314.824 94.7467 314.931 95.1733 315.144 95.44C315.357 95.68 315.691 95.8 316.144 95.8C316.544 95.8 317.117 95.6667 317.864 95.4L318.104 97.96ZM302.144 93.16C302.144 94.0667 302.411 94.7333 302.944 95.16C303.477 95.5867 304.184 95.8 305.064 95.8C305.971 95.8 306.904 95.5733 307.864 95.12C308.851 94.6667 309.984 93.9733 311.264 93.04V87.48L308.984 88.16C306.451 88.9333 304.677 89.68 303.664 90.4C302.651 91.12 302.144 92.04 302.144 93.16ZM333.412 75.92C335.758 75.92 337.372 76.5467 338.252 77.8C339.158 79.0267 339.612 80.8 339.612 83.12V98H336.052V83.44C336.052 81.76 335.785 80.56 335.252 79.84C334.718 79.12 333.798 78.76 332.492 78.76C331.505 78.76 330.505 78.9867 329.492 79.44C328.478 79.8933 327.372 80.5867 326.172 81.52V98H322.612V76.64H325.372L325.892 78.88C328.478 76.9067 330.985 75.92 333.412 75.92ZM355.348 98.72C353.108 98.72 351.214 98.2133 349.668 97.2C348.121 96.16 346.961 94.7867 346.188 93.08C345.441 91.3733 345.068 89.4667 345.068 87.36C345.068 85.28 345.454 83.3733 346.228 81.64C347.028 79.9067 348.228 78.52 349.828 77.48C351.428 76.44 353.414 75.92 355.788 75.92C357.094 75.92 358.348 76.1467 359.548 76.6C360.748 77.0267 361.734 77.64 362.508 78.44L361.188 80.96C360.521 80.2667 359.708 79.72 358.748 79.32C357.788 78.8933 356.801 78.68 355.788 78.68C353.548 78.68 351.801 79.48 350.548 81.08C349.321 82.6533 348.708 84.7333 348.708 87.32C348.708 89.9333 349.281 92.0267 350.428 93.6C351.601 95.1733 353.241 95.96 355.348 95.96C356.654 95.96 357.814 95.6933 358.828 95.16C359.841 94.6 360.801 93.84 361.708 92.88L363.068 95.16C362.161 96.2 361.041 97.0533 359.708 97.72C358.401 98.3867 356.948 98.72 355.348 98.72ZM376.246 95.96C377.579 95.96 378.779 95.6667 379.846 95.08C380.913 94.4933 381.939 93.6933 382.926 92.68L384.286 94.92C383.219 96.12 382.019 97.0533 380.686 97.72C379.379 98.3867 377.886 98.72 376.206 98.72C373.966 98.72 372.073 98.2133 370.526 97.2C369.006 96.16 367.859 94.7867 367.086 93.08C366.339 91.3467 365.966 89.44 365.966 87.36C365.966 85.2267 366.339 83.2933 367.086 81.56C367.859 79.8267 369.019 78.4533 370.566 77.44C372.113 76.4267 373.993 75.92 376.206 75.92C377.753 75.92 379.139 76.24 380.366 76.88C381.619 77.4933 382.593 78.4 383.286 79.6C383.979 80.8 384.326 82.2133 384.326 83.84C384.326 84.4533 384.233 85.2533 384.046 86.24H369.606C369.579 86.48 369.566 86.8267 369.566 87.28C369.566 89.92 370.126 92.0267 371.246 93.6C372.393 95.1733 374.059 95.96 376.246 95.96ZM376.086 78.56C374.513 78.56 373.206 79.0133 372.166 79.92C371.153 80.8267 370.433 82.0667 370.006 83.64H380.806V83.32C380.806 81.7733 380.339 80.6 379.406 79.8C378.499 78.9733 377.393 78.56 376.086 78.56Z" fill="black"/>
<path d="M1 460L1025 352" stroke="#A4BBBB" stroke-width="10"/>
<path d="M512.002 406L542.254 497.5H481.75L512.002 406Z" fill="#A4BBBB"/>
</svg>
